<?xml version="1.0" standalone="no"?>
<!DOCTYPE svg PUBLIC "-//W3C//DTD SVG 20010904//EN"
 "http://www.w3.org/TR/2001/REC-SVG-20010904/DTD/svg10.dtd">
<svg version="1.0" xmlns="http://www.w3.org/2000/svg"
 width="5305.000000pt" height="6150.000000pt" viewBox="0 0 5305.000000 6150.000000"
 preserveAspectRatio="xMidYMid meet">
<metadata>
Created by potrace 1.15, written by Peter Selinger 2001-2017
</metadata>
<g transform="translate(0.000000,6150.000000) scale(0.100000,-0.100000)"
fill="#000000" stroke="none">
<path d="M27400 51903 c-3871 -59 -7648 -1471 -10630 -3974 -665 -558 -1319
-1196 -1879 -1834 -3310 -3773 -4778 -8742 -4055 -13730 443 -3059 1753 -5991
3752 -8394 571 -686 1230 -1363 1898 -1947 2742 -2400 6176 -3861 9774 -4158
824 -69 1758 -78 2555 -26 3456 227 6701 1473 9435 3624 801 630 1605 1393
2286 2172 1966 2246 3307 4958 3888 7864 334 1666 416 3410 241 5125 -356
3486 -1814 6815 -4146 9470 -465 529 -1049 1113 -1574 1574 -2782 2441 -6244
3902 -9915 4185 -401 31 -1136 59 -1390 54 -47 -2 -155 -4 -240 -5z m895
-1203 c2279 -92 4408 -632 6425 -1631 4337 -2147 7481 -6180 8489 -10889 307
-1436 414 -2915 316 -4385 -232 -3478 -1601 -6764 -3916 -9400 -400 -455 -992
-1047 -1444 -1444 -2601 -2283 -5821 -3642 -9255 -3905 -437 -34 -629 -40
-1205 -40 -576 0 -770 6 -1205 40 -3437 264 -6654 1622 -9255 3905 -452 397
-1044 989 -1444 1444 -2899 3301 -4292 7595 -3880 11965 418 4430 2703 8493
6294 11187 2570 1927 5646 3022 8860 3152 295 12 934 12 1220 1z"/>
<path d="M21830 43950 c0 -6 320 -649 710 -1430 l710 -1420 -1230 0 -1230 0 0
-535 0 -535 1498 0 1497 0 793 -1587 793 -1588 -3 -2640 -4 -2640 -21 -92
c-146 -614 -639 -1143 -1424 -1528 -857 -420 -1929 -588 -2994 -469 -821 92
-1586 363 -2161 767 -453 318 -775 724 -888 1123 -56 198 -56 187 -56 1220 l0
954 -536 0 -535 0 4 -997 c4 -1081 4 -1077 62 -1333 177 -785 740 -1492 1607
-2018 1098 -665 2608 -947 4083 -761 1169 147 2196 581 2931 1240 557 499 912
1152 984 1814 6 55 10 706 11 1665 l1 1575 1536 -3077 1536 -3078 374 0 c352
0 374 1 368 18 -4 9 -1731 3469 -3839 7689 l-3832 7672 -372 0 c-243 1 -373
-2 -373 -9z"/>
<path d="M25150 41091 c0 -4 1406 -2821 3125 -6260 l3124 -6251 371 0 c203 0
370 3 370 8 0 4 -1405 2821 -3122 6259 l-3123 6253 -372 0 c-205 0 -373 -4
-373 -9z"/>
<path d="M27040 41095 c0 -2 1724 -3456 3832 -7675 l3831 -7670 374 0 c205 0
373 2 373 5 0 3 -317 640 -705 1415 l-705 1410 2310 0 2310 0 0 530 0 530
-2575 0 -2576 0 -1155 2313 -1154 2312 2895 3 2895 2 0 535 0 535 -2950 0
-2950 0 0 2345 0 2345 3705 0 3705 0 0 535 0 535 -4240 0 -4240 0 -1 -2232 0
-2233 -1117 2233 -1117 2232 -372 0 c-205 0 -373 -2 -373 -5z"/>
<path d="M14450 15825 l0 -325 295 0 295 0 0 325 0 325 -295 0 -295 0 0 -325z"/>
<path d="M43940 15825 l0 -325 295 0 295 0 0 325 0 325 -295 0 -295 0 0 -325z"/>
<path d="M5830 14958 c0 -1262 -7 -1437 -66 -1668 -55 -211 -156 -356 -302
-433 -107 -57 -181 -71 -367 -71 -225 -1 -388 38 -578 137 -59 30 -81 37 -87
28 -4 -7 -38 -117 -75 -244 l-67 -231 28 -23 c86 -68 314 -156 489 -189 134
-25 503 -26 645 -1 253 44 434 127 587 271 208 194 323 481 368 921 28 274 35
591 35 1598 l0 997 -305 0 -305 0 0 -1092z"/>
<path d="M23370 14175 l0 -1875 1290 0 1290 0 0 265 0 265 -990 0 -990 0 0
565 0 565 835 0 835 0 0 250 0 250 -835 0 -835 0 0 525 0 525 965 0 965 0 0
270 0 270 -1265 0 -1265 0 0 -1875z"/>
<path d="M30330 15515 l0 -455 -180 0 -180 0 0 -230 0 -230 179 0 180 0 4
-922 c3 -831 5 -929 20 -987 57 -214 220 -362 457 -416 96 -22 311 -22 432 -1
166 30 488 146 488 177 0 14 -102 410 -115 446 -2 8 -30 0 -87 -23 -139 -59
-219 -77 -322 -72 -77 3 -99 8 -145 33 -60 33 -92 70 -118 136 -17 41 -18 106
-21 837 l-3 792 301 0 300 0 0 230 0 230 -300 0 -300 0 0 455 0 455 -295 0
-295 0 0 -455z"/>
<path d="M12470 15100 c-307 -38 -575 -163 -771 -359 -47 -47 -104 -113 -125
-145 l-39 -59 -3 261 -2 262 -270 0 -270 0 0 -1380 0 -1380 295 0 295 0 0 819
0 819 28 64 c65 153 181 302 312 403 224 173 508 223 701 124 104 -53 190
-185 231 -354 21 -88 22 -106 25 -982 l4 -893 294 0 295 0 0 908 c0 568 -4
949 -11 1018 -21 222 -74 411 -150 541 -19 32 -70 94 -114 139 -92 93 -200
154 -320 179 -87 19 -305 27 -405 15z"/>
<path d="M17105 15100 c-546 -62 -991 -420 -1167 -940 -54 -161 -72 -285 -72
-490 1 -204 17 -311 75 -483 139 -418 454 -733 871 -871 153 -51 275 -69 468
-69 194 0 315 18 469 69 421 140 746 466 879 884 53 166 63 233 69 430 4 157
2 203 -15 305 -27 154 -68 282 -137 420 -189 378 -564 656 -985 729 -115 20
-345 28 -455 16z m336 -514 c521 -111 810 -773 574 -1319 -18 -43 -48 -104
-67 -135 -43 -73 -198 -228 -270 -271 -494 -289 -1080 13 -1194 616 -25 133
-16 348 20 468 35 117 102 252 169 340 106 139 275 253 437 295 91 23 237 26
331 6z"/>
<path d="M28240 15100 c-369 -45 -685 -219 -882 -483 l-58 -79 0 261 0 261
-270 0 -270 0 0 -1380 0 -1380 295 0 295 0 0 823 0 822 33 75 c18 41 53 104
77 140 56 83 178 210 256 266 131 94 304 154 443 154 223 0 368 -109 437 -325
51 -159 54 -222 54 -1122 l0 -833 296 0 295 0 -4 973 c-4 843 -6 984 -21 1066
-48 279 -118 436 -255 571 -135 134 -276 187 -516 195 -71 2 -164 0 -205 -5z"/>
<path d="M35705 15104 c-516 -53 -917 -319 -1135 -754 -197 -392 -213 -874
-42 -1269 244 -563 794 -881 1440 -832 377 29 655 152 897 395 110 111 208
250 209 298 1 18 -24 28 -239 89 -132 38 -243 69 -246 69 -3 0 -26 -33 -52
-73 -173 -273 -555 -410 -887 -317 -315 89 -564 382 -605 714 l-7 56 1100 0
1100 0 5 23 c15 60 18 223 7 337 -48 503 -318 904 -758 1124 -98 50 -257 102
-367 121 -89 15 -342 27 -420 19z m350 -459 c33 -9 106 -39 163 -66 222 -110
383 -323 437 -580 8 -39 15 -79 15 -90 0 -19 -16 -19 -826 -19 l-826 0 7 43
c27 173 101 342 197 454 112 132 283 232 457 269 84 17 293 11 376 -11z"/>
<path d="M39365 15099 c-159 -21 -334 -87 -468 -176 -88 -58 -223 -185 -288
-272 l-49 -64 0 237 0 236 -260 0 -260 0 0 -1940 0 -1940 295 0 295 0 2 802 3
801 39 -59 c95 -144 316 -325 483 -394 259 -108 586 -114 849 -15 274 103 521
335 659 619 126 257 173 492 162 805 -14 402 -152 728 -421 997 -189 188 -385
296 -631 349 -88 19 -318 27 -410 14z m220 -523 c134 -36 304 -141 395 -243
102 -114 183 -271 222 -429 27 -112 30 -320 5 -430 -77 -343 -290 -600 -572
-690 -117 -38 -254 -43 -365 -15 -255 64 -479 251 -609 508 l-31 62 0 375 0
374 41 81 c91 181 312 349 542 412 87 23 277 21 372 -5z"/>
<path d="M46315 15099 c-452 -50 -770 -291 -866 -654 -25 -97 -31 -299 -10
-385 28 -117 88 -211 182 -285 125 -98 269 -158 614 -255 666 -187 769 -232
825 -362 19 -43 22 -65 18 -128 -11 -174 -134 -290 -358 -336 -132 -26 -369
-16 -520 24 -184 48 -386 142 -573 267 -64 43 -84 52 -93 42 -19 -20 -224
-354 -224 -363 0 -5 29 -30 63 -56 496 -370 1332 -477 1820 -232 111 56 176
105 259 192 133 142 198 317 198 532 0 196 -48 319 -169 441 -155 155 -336
230 -910 379 -432 112 -520 154 -571 272 -19 44 -22 65 -18 137 7 145 63 229
191 290 102 49 184 65 332 64 253 -1 477 -76 713 -240 52 -35 95 -63 96 -61 2
2 58 81 126 177 l124 174 -39 34 c-283 245 -774 380 -1210 332z"/>
<path d="M49530 15099 c-239 -25 -477 -116 -673 -257 -100 -72 -256 -234 -325
-337 -226 -339 -304 -777 -210 -1180 112 -485 468 -872 933 -1015 306 -94 690
-86 990 20 299 106 552 315 684 564 17 33 30 61 28 63 -5 4 -484 143 -495 143
-5 0 -27 -30 -48 -66 -58 -99 -174 -203 -287 -259 -137 -67 -225 -88 -382 -89
-148 0 -223 15 -343 70 -261 119 -446 377 -487 677 l-6 47 1104 0 1105 0 7 98
c26 335 -59 669 -237 937 -70 106 -241 276 -348 347 -95 62 -218 126 -312 162
-192 72 -455 100 -698 75z m410 -459 c98 -28 230 -97 307 -161 146 -120 261
-329 291 -531 l9 -58 -827 0 -827 0 9 58 c11 75 54 214 85 277 108 215 317
375 558 429 99 22 294 15 395 -14z"/>
<path d="M20833 15075 c-280 -51 -526 -231 -705 -516 l-58 -92 0 296 0 297
-270 0 -270 0 0 -1380 0 -1380 290 0 290 0 2 848 3 847 45 79 c147 259 438
426 810 468 l110 12 0 262 c0 230 -2 263 -16 268 -26 10 -154 5 -231 -9z"/>
<path d="M33767 15079 c-296 -43 -548 -233 -755 -569 l-22 -35 0 293 0 292
-275 0 -275 0 0 -1380 0 -1380 295 0 295 0 0 843 0 844 30 59 c138 273 442
455 828 496 l112 12 0 262 c0 230 -2 263 -16 268 -21 8 -146 5 -217 -5z"/>
<path d="M42985 15079 c-281 -41 -548 -235 -731 -531 l-44 -72 0 292 0 292
-275 0 -275 0 0 -1380 0 -1380 295 0 295 0 0 848 0 848 48 82 c26 45 68 106
95 136 155 179 441 306 745 332 l82 7 0 262 0 263 -22 6 c-31 8 -140 5 -213
-5z"/>
<path d="M7443 14103 c4 -1043 4 -1045 63 -1251 126 -439 445 -645 937 -602
400 34 741 219 948 513 57 82 56 84 62 -108 4 -154 23 -210 92 -274 110 -101
247 -129 475 -98 l85 12 3 252 2 251 -40 7 c-21 4 -51 16 -66 28 -56 44 -54
-3 -54 1157 l0 1070 -295 0 -295 0 0 -860 0 -861 -31 -62 c-104 -206 -238
-346 -419 -437 -108 -54 -201 -80 -311 -87 -331 -20 -515 168 -559 572 -6 52
-10 438 -10 913 l0 822 -296 0 -295 0 4 -957z"/>
<path d="M14450 13680 l0 -1380 295 0 295 0 0 1380 0 1380 -295 0 -295 0 0
-1380z"/>
<path d="M43940 13680 l0 -1380 295 0 295 0 0 1380 0 1380 -295 0 -295 0 0
-1380z"/>
<path d="M27090 10879 c-362 -46 -691 -212 -876 -443 -111 -139 -186 -306
-220 -491 -24 -131 -15 -410 15 -515 74 -249 263 -441 563 -571 135 -59 290
-110 602 -200 458 -132 602 -191 712 -292 77 -70 106 -131 112 -232 8 -148
-55 -253 -192 -320 -111 -55 -193 -69 -401 -69 -245 0 -442 38 -680 132 -190
74 -471 228 -547 300 -15 14 -30 24 -32 21 -4 -5 -326 -630 -326 -634 0 -2 43
-31 95 -65 303 -196 675 -331 1085 -395 143 -22 486 -31 631 -16 538 56 895
269 1064 635 115 247 121 643 15 891 -34 78 -122 205 -186 265 -194 184 -460
299 -1037 450 -455 118 -636 203 -711 333 -37 64 -51 151 -37 233 37 207 183
315 469 345 313 32 724 -87 1030 -298 52 -35 95 -63 97 -61 11 14 315 580 315
588 0 24 -236 158 -413 235 -215 92 -392 143 -595 170 -122 16 -439 19 -552 4z"/>
<path d="M19940 8995 l0 -1875 370 0 370 0 0 1875 0 1875 -370 0 -370 0 0
-1875z"/>
<path d="M21760 8995 l0 -1875 370 0 370 0 2 1188 3 1188 953 -1188 953 -1188
300 0 299 0 0 1870 0 1870 -370 0 -370 0 -2 -1210 -3 -1211 -965 1216 -965
1215 -287 0 -288 0 0 -1875z"/>
<path d="M30610 10788 c-74 -191 -1373 -3596 -1386 -3631 l-13 -37 381 2 381
3 170 463 170 462 649 -2 649 -3 172 -462 172 -463 378 0 c295 0 377 3 377 13
-1 6 -319 849 -709 1872 l-708 1860 -326 3 -325 2 -32 -82z m614 -1504 c135
-386 246 -704 246 -708 0 -3 -232 -6 -516 -6 -409 0 -515 3 -512 13 209 581
524 1424 529 1415 4 -7 118 -329 253 -714z"/>
<path d="M32750 10545 l0 -325 595 0 595 0 0 -1550 0 -1550 365 0 365 0 0
1550 0 1550 600 0 600 0 0 325 0 325 -1560 0 -1560 0 0 -325z"/>
</g>
</svg>
